<svg width="200" height="60" viewBox="0 0 200 60" fill="none" xmlns="http://www.w3.org/2000/svg">
  <!-- Ícone de prédios -->
  <g transform="translate(10, 10)">
    <!-- Prédio 1 -->
    <rect x="0" y="15" width="8" height="25" fill="white" stroke="white" stroke-width="1"/>
    <rect x="1" y="17" width="2" height="2" fill="#1e3a8a"/>
    <rect x="5" y="17" width="2" height="2" fill="#1e3a8a"/>
    <rect x="1" y="21" width="2" height="2" fill="#1e3a8a"/>
    <rect x="5" y="21" width="2" height="2" fill="#1e3a8a"/>
    <rect x="1" y="25" width="2" height="2" fill="#1e3a8a"/>
    <rect x="5" y="25" width="2" height="2" fill="#1e3a8a"/>
    
    <!-- Prédio 2 -->
    <rect x="10" y="10" width="8" height="30" fill="white" stroke="white" stroke-width="1"/>
    <rect x="11" y="12" width="2" height="2" fill="#1e3a8a"/>
    <rect x="15" y="12" width="2" height="2" fill="#1e3a8a"/>
    <rect x="11" y="16" width="2" height="2" fill="#1e3a8a"/>
    <rect x="15" y="16" width="2" height="2" fill="#1e3a8a"/>
    <rect x="11" y="20" width="2" height="2" fill="#1e3a8a"/>
    <rect x="15" y="20" width="2" height="2" fill="#1e3a8a"/>
    <rect x="11" y="24" width="2" height="2" fill="#1e3a8a"/>
    <rect x="15" y="24" width="2" height="2" fill="#1e3a8a"/>
    
    <!-- Prédio 3 -->
    <rect x="20" y="5" width="8" height="35" fill="white" stroke="white" stroke-width="1"/>
    <rect x="21" y="7" width="2" height="2" fill="#1e3a8a"/>
    <rect x="25" y="7" width="2" height="2" fill="#1e3a8a"/>
    <rect x="21" y="11" width="2" height="2" fill="#1e3a8a"/>
    <rect x="25" y="11" width="2" height="2" fill="#1e3a8a"/>
    <rect x="21" y="15" width="2" height="2" fill="#1e3a8a"/>
    <rect x="25" y="15" width="2" height="2" fill="#1e3a8a"/>
    <rect x="21" y="19" width="2" height="2" fill="#1e3a8a"/>
    <rect x="25" y="19" width="2" height="2" fill="#1e3a8a"/>
    <rect x="21" y="23" width="2" height="2" fill="#1e3a8a"/>
    <rect x="25" y="23" width="2" height="2" fill="#1e3a8a"/>
  </g>
  
  <!-- Texto DE CASTRO -->
  <text x="50" y="25" font-family="Arial, sans-serif" font-size="16" font-weight="bold" fill="white">DE CASTRO</text>
  <text x="50" y="42" font-family="Arial, sans-serif" font-size="10" fill="white">CONSTRUTORA</text>
</svg>

